#!OML:ASF F:\VICON\USERDATA\INSTALL\Justin_Nancy\Justin_Nancy.ASF
:FULLY-SPECIFIED
:DEGREES
127
root 5.41374 17.3622 -2.59334 -3.35594 -41.5038 7.03436
lowerback 8.47859 0.533485 -2.51221
upperback -0.223835 0.489907 0.680555
thorax -5.02088 0.313221 2.06062
lowerneck -17.8728 -3.23977 -9.34881
upperneck 23.9444 -3.15151 4.67616
head 10.9233 -1.76232 2.79543
rclavicle -6.45553e-014 -7.15625e-015
rhumerus -38.8929 -15.2793 -73.8155
rradius 33.3936
rwrist 7.62314
rhand -14.1169 12.0138
rfingers 7.12502
rthumb 12.0164 -17.6213
lclavicle -6.45553e-014 -7.15625e-015
lhumerus -34.0681 20.5425 77.1146
lradius 21.2253
lwrist -15.7935
lhand -12.9049 29.1442
lfingers 7.12502
lthumb 13.1848 58.7072
rfemur -14.8423 3.37382 17.9602
rtibia 70.8247
rfoot 0.769551 -0.43346
rtoes 4.37749
lfemur -18.5824 0.126253 -24.0718
ltibia 29.6512
lfoot -9.48822 -2.66496
ltoes -1.19886
128
root 5.30028 17.3741 -2.39991 -3.32908 -41.2231 6.90253
lowerback 8.48677 0.350765 -2.43153
upperback -0.219351 0.260258 0.796864
thorax -5.00825 0.198975 2.16572
lowerneck -16.7979 -2.9772 -9.31167
upperneck 23.744 -2.73043 4.02448
head 10.6008 -1.65681 2.61482
rclavicle -8.5875e-014 2.94201e-014
rhumerus -39.0638 -15.0815 -73.915
rradius 33.2071
rwrist 7.45085
rhand -14.079 11.4788
rfingers 7.12502
rthumb 12.0529 -18.1541
lclavicle -8.5875e-014 2.94201e-014
lhumerus -34.0122 21.0517 76.998
lradius 21.3356
lwrist -16.9457
lhand -13.5857 28.4145
lfingers 7.12502
lthumb 12.5285 58.0189
rfemur -16.5705 2.66304 17.9893
rtibia 71.4935
rfoot -0.536803 -0.647861
rtoes 5.71466
lfemur -17.8218 -0.000285397 -24.161
ltibia 29.5917
lfoot -10.2032 -2.89364
ltoes -1.66361
129
root 5.17707 17.4235 -2.20117 -3.49573 -41.0711 7.14294
lowerback 8.37729 0.307013 -2.60525
upperback -0.169478 0.184712 0.735729
thorax -4.89067 0.16298 2.20928
lowerneck -17.5065 -3.09007 -9.03536
upperneck 24.0511 -2.88599 3.96705
head 10.8563 -1.70738 2.52541
rclavicle -7.17613e-014 3.18055e-015
rhumerus -39.2999 -15.7508 -73.631
rradius 32.7126
rwrist 8.26558
rhand -13.5044 11.9865
rfingers 7.12502
rthumb 12.607 -17.6131
lclavicle -7.17613e-014 3.18055e-015
lhumerus -33.4622 21.186 76.9673
lradius 21.1365
lwrist -17.8991
lhand -14.5994 27.4693
lfingers 7.12502
lthumb 11.5511 57.131
rfemur -18.2299 2.07632 17.7636
rtibia 71.6511
rfoot -1.42727 -0.977873
rtoes 6.96976
lfemur -17.4922 -0.990978 -24.3088
ltibia 29.6838
lfoot -10.5627 -3.17879
ltoes 5.03273
130
root 5.06194 17.3957 -2.00756 -3.82785 -40.9943 7.65181
lowerback 8.19215 0.294929 -2.90197
upperback -0.100614 0.137985 0.580288
thorax -4.71234 0.141589 2.21993
lowerneck -17.5533 -3.11943 -8.8515
upperneck 24.0489 -2.9404 3.83191
head 10.8632 -1.73105 2.43693
rclavicle -1.60022e-014 4.77083e-015
rhumerus -39.5106 -16.4616 -73.4976
rradius 32.3416
rwrist 9.05672
rhand -13.6213 11.7178
rfingers 7.12502
rthumb 12.4942 -17.8887
lclavicle -1.60022e-014 4.77083e-015
lhumerus -32.8843 21.723 76.7227
lradius 20.8583
lwrist -19.3571
lhand -14.3426 27.3127
lfingers 7.12502
lthumb 11.7987 56.9604
rfemur -20.1007 1.43596 17.2985
rtibia 71.8886
rfoot -2.45816 -1.11825
rtoes 6.91102
lfemur -16.4278 -0.907365 -25.034
ltibia 29.8335
lfoot -11.9449 -2.62329
ltoes -1.36329
131
root 4.93993 17.4134 -1.81386 -3.91629 -40.8355 7.82683
lowerback 8.03678 0.179317 -3.08667
upperback -0.0467674 -0.02699 0.603046
thorax -4.55886 0.0612717 2.36702
lowerneck -17.7402 -3.12741 -8.78407
upperneck 24.192 -2.90034 3.625
head 10.9462 -1.7331 2.35625
rclavicle -1.40143e-014 3.18055e-015
rhumerus -39.5802 -16.8497 -73.4455
rradius 32.0283
rwrist 9.04982
rhand -13.9934 10.7918
rfingers 7.12502
rthumb 12.1354 -18.8362
lclavicle -1.40143e-014 3.18055e-015
lhumerus -32.2683 21.6185 76.9239
lradius 20.6772
lwrist -19.5075
lhand -13.9932 27.7085
lfingers 7.12502
lthumb 12.1357 57.3365
rfemur -21.6973 0.815777 17.1418
rtibia 71.6304
rfoot -2.96954 -1.11705
rtoes 10.322
lfemur -15.8827 -0.959162 -25.401
ltibia 30.0209
lfoot -12.154 -2.63322
ltoes 1.23875
